<?xml version="1.0" encoding="utf-8"?>
<!-- Generator: Adobe Illustrator 26.1.0, SVG Export Plug-In . SVG Version: 6.00 Build 0)  -->
<svg version="1.1" id="a" xmlns="http://www.w3.org/2000/svg" xmlns:xlink="http://www.w3.org/1999/xlink" x="0px" y="0px"
	 viewBox="0 0 54 52" style="enable-background:new 0 0 54 52;" xml:space="preserve">
<style type="text/css">
	.st0{fill:#059DD8;}
	.st1{enable-background:new    ;}
	.st2{fill:#01263D;}
	.st3{fill:#FFFFFF;}
</style>
<path class="st0" d="M7.3,0h39.4c4,0,7.3,3.3,7.3,7.3v37.4c0,4-3.3,7.3-7.3,7.3H7.3c-4,0-7.3-3.3-7.3-7.3V7.3C0,3.3,3.3,0,7.3,0z"/>
<g>
	<g transform="translate(1.1 45.99) scale(1.24 1)">
		<g class="st1">
			<path class="st2" d="M2.8-16.5v-13h6.6v1.9H6v3.2h2.5v2H6v3.9h3.4v1.9C9.4-16.5,2.8-16.5,2.8-16.5z"/>
		</g>
	</g>
	<g transform="translate(20.29 53.64) scale(1.13 1)">
		<g class="st1">
			<path class="st2" d="M-7.6-20.8l3.7-10.7l-3.4-9.1h3.9l2.2,5.3l1.7-5.3h3.6L0.6-30.3l3.7,9.5H0.3L-2-26.6l-2,6h-3.6V-20.8z"/>
		</g>
	</g>
	<g transform="translate(52.66 45.93) scale(.98 1)">
		<g class="st1">
			<path class="st2" d="M-26.9-16.7v-10.8h-1.9v-2.2h6.7v2.2h-1.9v10.8H-26.9z"/>
			<path class="st2" d="M-20.9-16.7v-13h3.6c0.9,0,1.7,0.1,2.3,0.3c0.6,0.1,1.1,0.5,1.5,1c0.4,0.5,0.5,1.1,0.5,2.2
				c0,0.5,0,1-0.1,1.4s-0.3,0.8-0.5,1.1c-0.3,0.4-0.5,0.5-1,0.8l1.8,6.2h-2.9l-1.4-5.8h-0.9v5.8C-18.1-16.7-20.9-16.7-20.9-16.7z
				 M-18.1-24.2h0.8c0.4,0,0.8-0.1,0.9-0.3c0.1-0.1,0.4-0.4,0.5-0.6c0.1-0.3,0.1-0.6,0.1-1c0-0.5-0.1-1-0.3-1.3
				c-0.3-0.3-0.6-0.5-1.1-0.5h-0.9V-24.2z"/>
			<path class="st2" d="M-11.9-16.7l2.4-13h3.3l2.4,13h-2.7l-0.4-2.8h-1.9l-0.5,2.8C-9.2-16.7-11.9-16.7-11.9-16.7z M-8.4-21.2H-7
				l-0.6-5.1L-8.4-21.2z"/>
		</g>
	</g>
	<rect x="25.3" y="30.3" class="st2" width="25.9" height="0.5"/>
	<rect x="24.4" y="14.9" class="st2" width="26.3" height="0.5"/>
	<rect x="3.1" y="14.9" class="st2" width="8.9" height="0.5"/>
	<rect x="3.1" y="30.3" class="st2" width="8.5" height="0.5"/>
	<rect x="17" y="30.3" class="st2" width="2.2" height="0.5"/>
	<rect x="50.7" y="14.9" class="st2" width="0.5" height="15.7"/>
	<rect x="3.1" y="15.1" class="st2" width="0.5" height="15.7"/>
	<rect x="17.7" y="15.1" class="st2" width="1.8" height="0.5"/>
</g>
<g>
	<path class="st2" d="M7.6,46.2v-9.7h2.2v8.2H12v1.5H7.6z"/>
	<path class="st2" d="M12.9,46.2v-9.7h2.2v9.7H12.9z"/>
	<path class="st2" d="M16.5,46.2v-9.7H19c0.4,0,0.9,0,1.2,0.1c0.4,0,0.7,0.1,1,0.3c0.3,0.1,0.4,0.4,0.7,0.7c0.1,0.3,0.3,0.7,0.3,1.3
		c0,0.4,0,0.7-0.1,1s-0.3,0.4-0.4,0.6c-0.1,0.1-0.4,0.3-0.7,0.3c0.4,0,0.7,0.1,0.9,0.3c0.3,0.1,0.4,0.4,0.6,0.7s0.1,0.7,0.1,1.2
		c0,0.4,0,0.9-0.1,1.3c-0.1,0.3-0.3,0.6-0.6,0.9c-0.3,0.3-0.6,0.4-0.9,0.6C20.7,46,20.2,46,19.6,46h-3.1V46.2z M18.6,40.3H19
		c0.3,0,0.6,0,0.7-0.1s0.3-0.3,0.3-0.4c0-0.1,0.1-0.4,0.1-0.7s0-0.4-0.1-0.6c-0.1-0.1-0.3-0.3-0.4-0.4c-0.1-0.1-0.4-0.1-0.7-0.1
		h-0.3V40.3z M18.6,44.7H19c0.4,0,0.7-0.1,1-0.3c0.1-0.3,0.3-0.6,0.3-1c0-0.4,0-0.6-0.1-0.9c-0.1-0.1-0.1-0.4-0.4-0.4
		c-0.1-0.1-0.4-0.1-0.7-0.1h-0.4V44.7z"/>
	<path class="st2" d="M23.6,46.2v-9.7h2.6c0.6,0,1.2,0,1.8,0.1c0.4,0.1,0.9,0.4,1.2,0.7c0.3,0.4,0.4,0.9,0.4,1.6c0,0.4,0,0.7-0.1,1
		c0,0.3-0.1,0.6-0.3,0.9c-0.1,0.3-0.4,0.4-0.7,0.6l1.3,4.7h-2.4l-1-4.4h-0.6v4.4H23.6z M25.7,40.6h0.6c0.3,0,0.6,0,0.7-0.1
		c0.1-0.1,0.3-0.3,0.3-0.4c0-0.1,0.1-0.4,0.1-0.7c0-0.4-0.1-0.7-0.3-1s-0.4-0.3-0.9-0.3h-0.7v2.6H25.7z"/>
	<path class="st2" d="M30.2,46.2l1.8-9.7h2.5l1.8,9.7h-1.9L34,44.1h-1.5l-0.3,2.1H30.2z M32.9,42.8h1L33.3,39L32.9,42.8z"/>
	<g class="st1">
		<path class="st2" d="M37.3,46.2v-9.7h2.6c0.6,0,1.2,0,1.8,0.1c0.4,0.1,0.9,0.4,1.2,0.7c0.3,0.4,0.4,0.9,0.4,1.6c0,0.4,0,0.7-0.1,1
			c0,0.3-0.1,0.6-0.3,0.9c-0.1,0.3-0.4,0.4-0.7,0.6l1.3,4.7h-2.2l-1-4.4h-0.6v4.4H37.3z M39.5,40.6h0.6c0.3,0,0.6,0,0.7-0.1
			c0.1-0.1,0.3-0.3,0.3-0.4c0-0.1,0.1-0.4,0.1-0.7c0-0.4-0.1-0.7-0.3-1c-0.1-0.3-0.4-0.3-0.9-0.3h-0.7v2.6H39.5z"/>
	</g>
	<g class="st1">
		<path class="st2" d="M45.5,46.2v-4l-1.9-5.7h2.1l0.9,3.1l0.9-3.1h1.9l-1.8,5.7v4C47.6,46.2,45.5,46.2,45.5,46.2z"/>
	</g>
</g>
<g>
	<g>
		<path class="st3" d="M24.6,4.9c0-0.6,0.5-1.1,1.1-1.1s1.1,0.5,1.1,1.1S26.3,6,25.7,6S24.6,5.5,24.6,4.9z M25.2,7.5h0.9l0.1-0.7
			c0.1,0,0.3-0.1,0.4-0.2L27.2,7l0.6-0.6l-0.4-0.6c0.1-0.1,0.1-0.3,0.2-0.4l0.7-0.1V4.5l-0.7-0.1c0-0.1-0.1-0.3-0.2-0.4l0.4-0.6
			l-0.6-0.6l-0.6,0.4C26.5,3.1,26.4,3,26.2,3l-0.1-0.7h-0.9L25.1,3c-0.1,0-0.3,0.1-0.4,0.2l-0.6-0.4l-0.6,0.6L23.9,4
			c-0.1,0.1-0.1,0.3-0.2,0.4L23,4.5v0.9l0.7,0.1c0,0.1,0.1,0.3,0.2,0.4l-0.4,0.6L24.1,7l0.6-0.4c0.1,0.1,0.3,0.1,0.4,0.2L25.2,7.5"
			/>
	</g>
</g>
<g>
	<g>
		<path class="st3" d="M27.8,9.6c-0.1,0.4-0.5,0.8-0.9,0.7s-0.8-0.5-0.7-0.9c0.1-0.4,0.5-0.8,0.9-0.7C27.5,8.7,27.8,9.1,27.8,9.6z
			 M28.4,8.9l0.3-0.4L28.3,8l-0.5,0.2c-0.1-0.1-0.2-0.1-0.3-0.2V7.5H27L26.8,8c-0.1,0-0.2,0-0.3,0.1l-0.4-0.3l-0.5,0.4l0.2,0.5
			c-0.1,0.1-0.1,0.2-0.2,0.3h-0.5L25,9.5l0.5,0.2c0,0.1,0,0.2,0.1,0.3l-0.3,0.4l0.4,0.5l0.5-0.2c0.1,0.1,0.2,0.1,0.3,0.2v0.5
			l0.6,0.1l0.2-0.5c0.1,0,0.2,0,0.3-0.1l0.4,0.3l0.5-0.4l-0.2-0.5c0.1-0.1,0.1-0.2,0.2-0.3H29l0.1-0.6l-0.5-0.2
			C28.4,9.1,28.4,9,28.4,8.9"/>
	</g>
</g>
<g>
	<g>
		<path class="st3" d="M30.8,6.8c-0.1,0.5-0.6,0.7-1.1,0.6S29,6.8,29.1,6.3s0.6-0.7,1.1-0.6C30.6,5.8,30.9,6.3,30.8,6.8z M31.5,6.5
			c0-0.1,0-0.2,0-0.4l0.4-0.3l-0.3-0.6l-0.5,0.2c-0.1-0.1-0.2-0.2-0.3-0.2V4.7l-0.6-0.2L29.9,5c-0.1,0-0.2,0-0.4,0l-0.3-0.4
			l-0.6,0.3l0.2,0.5c-0.1,0.1-0.2,0.2-0.2,0.3h-0.5l-0.2,0.6l0.5,0.2c0,0.1,0,0.2,0,0.4L28,7.3l0.3,0.6l0.5-0.2
			c0.1,0.1,0.2,0.2,0.3,0.2v0.5l0.6,0.2L30,8.1c0.1,0,0.2,0,0.4,0l0.3,0.4l0.6-0.3l-0.2-0.5c0.1-0.1,0.2-0.2,0.2-0.3h0.5L32,6.8
			L31.5,6.5"/>
	</g>
</g>
</svg>
