<?xml version="1.0" encoding="utf-8"?>
<!-- Generator: Adobe Illustrator 27.3.1, SVG Export Plug-In . SVG Version: 6.00 Build 0)  -->
<svg version="1.1" id="Layer_1" xmlns="http://www.w3.org/2000/svg" xmlns:xlink="http://www.w3.org/1999/xlink" x="0px" y="0px"
	 viewBox="0 0 84 84" style="enable-background:new 0 0 84 84;" xml:space="preserve">
<style type="text/css">
	.st0{fill:#D6B586;}
	.st1{fill:#898888;}
	.st2{fill:#D8A155;}
	.st3{fill:#B3B3B3;}
	.st4{fill:#A0A0AB;}
	.st5{fill-rule:evenodd;clip-rule:evenodd;fill:#9F9F9F;}
	.st6{fill-rule:evenodd;clip-rule:evenodd;fill:#D6B586;}
	.st7{fill-rule:evenodd;clip-rule:evenodd;fill:#898888;}
	.st8{fill-rule:evenodd;clip-rule:evenodd;fill:#CCCCCC;}
	.st9{fill-rule:evenodd;clip-rule:evenodd;fill:#D8A155;}
	.st10{fill-rule:evenodd;clip-rule:evenodd;fill:#B3B3B3;}
</style>
<path class="st0" d="M60.2,21.2c-0.1,0.4-0.1,0.8-0.1,1.2c0,0.6,0,1.2,0,1.8c0,2.7,0,5.4,0,8.1c0,1.4,0,2.8,0,4.2c0,1.4,0,2.8,0,4.1
	c0,0.6-0.1,1.1-0.1,1.7c0,0.8,0,1.5,0,2.3c0,1.3,0,2.6,0,3.9c0,1.3,0,2.6,0.1,3.9c0.1,1.3,0,2.7,0,4c0,1.4,0,2.7,0,4.1
	c0,0.4,0,0.8,0.1,1.2c0,0.3,0.1,0.6,0.2,0.9c0.1,0.7,0,1.3-0.2,1.9c-0.2,0.6-0.9,0.8-1.4,0.4c-0.1-0.1-0.3-0.3-0.4-0.4
	c-0.1-0.2,0-0.5,0-0.7c0-0.5,0-1,0-1.4c0-1,0-2,0-3c0-2,0-4,0-6.1c0-4,0-8,0-12c0-2-0.1-4,0-6c0-1,0.1-2,0-3c0-1-0.1-2-0.1-3.1
	c0-1,0-2,0-3c0-1,0.1-2,0.1-3c0-1,0-2,0-3c0-0.3,0-0.5,0-0.8c0-0.2,0.1-0.3,0.2-0.5c0.2-0.3,0.3-0.6,0.6-0.9
	c0.2-0.2,0.4-0.3,0.6-0.2c0.3,0.1,0.4,0.5,0.6,0.8c0.2,0.5,0.2,1.1,0.1,1.6C60.3,20.6,60.2,20.9,60.2,21.2z"/>
<g>
	<g>
		<path class="st1" d="M63.6,10.5c-0.1-0.3-0.2-0.6-0.3-0.8c-0.7-0.9-2-1.1-3.1-1.2c-0.7-0.1-1.4-0.1-2-0.1c-0.5,0-0.9,0.1-1.4,0.2
			c-0.4,0.1-0.9,0.3-1.2,0.7c-0.2,0.2-0.2,0.4-0.3,0.7c-0.1,0.3-0.1,0.7-0.1,1c-0.1,1.4,0.1,2.8,0.3,4.2c0.2,1.2,0.3,2.4,0.7,3.6
			c0.3,1.1,1,2.1,2,2.6c1,0.5,2.1,0.4,2.9-0.4c0.7-0.7,1.1-1.7,1.4-2.6c0.2-0.7,0.4-1.3,0.6-2c0.2-0.7,0.3-1.3,0.4-2
			c0.1-0.7,0.2-1.4,0.2-2.1C63.6,11.7,63.7,11.1,63.6,10.5z M61.8,13.4c-0.2,0.5-0.6,1-1.1,1.3c-0.4,0.3-1,0.4-1.5,0.3
			c-1.1-0.1-2-0.8-2.4-1.8c-0.2-0.5-0.3-1.1-0.3-1.7c0-0.2,0-0.5,0.1-0.7c0-0.1,0.1-0.2,0.2-0.3c0.1-0.1,0.2-0.1,0.3-0.2
			c0.2-0.1,0.4-0.1,0.6-0.2c0.3-0.1,0.7,0,1,0c0.7,0,1.4,0,2.2,0.1c0.3,0,0.6,0,0.9,0.2c0.3,0.2,0.4,0.5,0.4,0.8
			C62.2,11.9,62.2,12.7,61.8,13.4z"/>
	</g>
</g>
<g>
	<g>
		<path class="st1" d="M65.4,65.1c-0.1,1.4,0,1.4-0.1,2.8c-0.1,1.4-0.1,1.4-0.2,2.8c-0.1,1.4-0.1,1.4-0.2,2.8
			c-0.1,1.4-0.2,1.4-0.3,2.8c0,0.5,0.1,0.9-0.3,0.9c-0.4,0-0.3,0-0.3-0.3c0-1.3-0.1-1.1-0.2-2.5c-0.1-0.8,0-1.7-0.1-2.5
			c-0.1-0.9-0.2-1.8-0.2-2.5c-0.1-1.3-0.1-2.3-0.1-2.5c-0.1-0.8-0.9-1.2-1.2-0.5c-0.6,1.2-0.1,1.3-0.2,2.6c-0.1,1.3-0.1,1.3-0.2,2.7
			c-0.1,1.3-0.1,1.3-0.1,2.7c-0.1,1.3,0,1.3-0.2,2.5c0,0.2-0.1,0.3-0.2,0.5c-0.2,0.2-0.4,0.1-0.4-0.3c-0.2-1.3-0.2-1.3-0.3-2.7
			c-0.1-1.3-0.1-1.3-0.2-2.7c-0.1-1.3,0-1.3-0.1-2.7c-0.1-1.3,0.2-1.4-0.3-2.6c0-0.1-0.1-0.1-0.1-0.1h-1.1c0,0-0.1,0-0.1,0.1
			c-0.4,1.3-0.2,1.3-0.3,2.6c-0.1,1.3,0,1.3-0.1,2.7c-0.1,1.3-0.1,1.3-0.2,2.7c-0.1,1.3-0.1,1.3-0.3,2.7c-0.1,0.3-0.2,0.5-0.4,0.3
			c-0.1-0.1-0.2-0.3-0.2-0.5c-0.2-1.1-0.1-1.2-0.2-2.5c-0.1-1.3-0.1-1.3-0.1-2.7c-0.1-1.3-0.1-1.3-0.2-2.7c-0.1-1.3,0.4-1.4-0.2-2.6
			c-0.3-0.7-1.2-0.3-1.2,0.5c0,0.2-0.1,1.2-0.1,2.5c-0.1,0.8-0.2,1.7-0.2,2.5c-0.1,0.9,0,1.8-0.1,2.5c-0.1,1.5-0.2,1.3-0.2,2.5
			c0,0.2,0.1,0.3-0.3,0.3c-0.4,0-0.3-0.4-0.3-0.9c-0.1-1.4-0.2-1.4-0.3-2.8c-0.1-1.4-0.1-1.4-0.2-2.8c-0.1-1.4-0.1-1.4-0.2-2.8
			s0-1.4-0.1-2.8c0-0.8,0-1.1,0.8-1.1c0.8,0,1.9,0,3.7,0c0.3,0,0.3,0,0.3-0.3c0-0.3-0.2-1.2,0.1-2.4c0.1-0.5,0.5-0.7,1-0.6
			c0.2,0,0.4,0,0.7,0c0.5,0,0.9,0.1,1,0.6c0.3,1.2,0.1,2,0.1,2.4c0,0.3,0,0.3,0.3,0.3c1.9,0,2.9,0,3.7,0
			C65.4,64,65.4,64.3,65.4,65.1z"/>
	</g>
</g>
<path class="st2" d="M60,21.7c-0.1,0.4-0.1,0.8-0.1,1.2c0,0.6,0,1.1,0,1.7c0,2.6,0,5.3,0,7.9c0,1.4,0,2.7,0,4.1c0,1.3,0,2.7,0,4
	c0,0.5-0.1,1.1-0.1,1.6c0,0.7,0,1.5,0,2.2c0,1.3,0,2.5,0,3.8c0,1.3,0,2.5,0.1,3.8c0.1,1.3,0,2.6,0,3.9c0,1.3,0,2.7,0,4
	c0,0.4,0,0.8,0.1,1.2c0,0.3,0.1,0.6,0.2,0.8c0.1,0.6,0,1.2-0.2,1.8c-0.2,0.6-0.8,0.8-1.3,0.4c-0.1-0.1-0.3-0.2-0.3-0.4
	c-0.1-0.2,0-0.5,0-0.7c0-0.5,0-0.9,0-1.4c0-1,0-1.9,0-2.9c0-2,0-3.9,0-5.9c0-3.9,0-7.8,0-11.7c0-2,0-3.9,0-5.9c0-1,0.1-2,0-2.9
	c0-1-0.1-2-0.1-3c0-1,0-2,0-2.9c0-1,0.1-2,0.1-2.9c0-1,0-1.9,0-2.9c0-0.2,0-0.5,0-0.8c0-0.2,0.1-0.3,0.2-0.5
	c0.2-0.3,0.3-0.6,0.5-0.9c0.2-0.2,0.4-0.3,0.6-0.2c0.3,0.1,0.4,0.5,0.5,0.8c0.2,0.5,0.2,1,0.1,1.6C60.1,21.2,60,21.4,60,21.7z"/>
<g>
	<g>
		<path class="st3" d="M63.3,11.4c-0.1-0.3-0.2-0.5-0.3-0.8c-0.7-0.9-1.9-1.1-3-1.2c-0.7-0.1-1.3-0.1-2-0.1c-0.5,0-0.9,0.1-1.4,0.2
			c-0.4,0.1-0.9,0.3-1.1,0.7c-0.2,0.2-0.2,0.4-0.3,0.7c-0.1,0.3-0.1,0.6-0.1,1c-0.1,1.4,0.1,2.7,0.3,4.1c0.2,1.2,0.3,2.4,0.7,3.5
			c0.3,1,0.9,2.1,1.9,2.6c0.9,0.5,2,0.4,2.8-0.4c0.7-0.7,1-1.6,1.3-2.5c0.2-0.6,0.4-1.3,0.6-1.9c0.2-0.7,0.3-1.3,0.4-2
			c0.1-0.7,0.2-1.4,0.2-2.1C63.4,12.5,63.4,12,63.3,11.4z M61.6,14.2c-0.2,0.5-0.6,1-1,1.3c-0.4,0.3-1,0.4-1.5,0.3
			c-1.1-0.1-2-0.8-2.4-1.8c-0.2-0.5-0.3-1.1-0.3-1.6c0-0.2,0-0.5,0.1-0.7c0-0.1,0.1-0.2,0.2-0.3c0.1-0.1,0.2-0.1,0.3-0.2
			c0.2-0.1,0.4-0.1,0.6-0.2c0.3-0.1,0.7,0,1,0c0.7,0,1.4,0,2.1,0.1c0.3,0,0.6,0,0.9,0.2c0.3,0.2,0.4,0.5,0.4,0.8
			C62,12.7,61.9,13.5,61.6,14.2z"/>
	</g>
</g>
<g>
	<g>
		<path class="st4" d="M65.1,64.5c-0.1,1.4,0,1.4-0.1,2.7c-0.1,1.4-0.1,1.4-0.2,2.7c-0.1,1.4-0.1,1.4-0.2,2.7
			c-0.1,1.4-0.2,1.4-0.3,2.7c0,0.5,0.1,0.9-0.3,0.9s-0.3,0-0.3-0.3c0-1.2-0.1-1-0.2-2.5c-0.1-0.8,0-1.6-0.1-2.5
			c-0.1-0.9-0.2-1.7-0.2-2.5c-0.1-1.2-0.1-2.2-0.1-2.5c-0.1-0.8-0.9-1.2-1.2-0.5c-0.5,1.2-0.1,1.3-0.2,2.6c-0.1,1.3-0.1,1.3-0.2,2.6
			c-0.1,1.3-0.1,1.3-0.1,2.6c-0.1,1.2,0,1.3-0.2,2.4c0,0.2-0.1,0.3-0.2,0.5c-0.2,0.2-0.4,0.1-0.4-0.3c-0.2-1.3-0.2-1.3-0.3-2.6
			c-0.1-1.3-0.1-1.3-0.2-2.6c-0.1-1.3,0-1.3-0.1-2.6c-0.1-1.3,0.2-1.3-0.3-2.6c0-0.1-0.1-0.1-0.1-0.1h-1.1c0,0-0.1,0-0.1,0.1
			c-0.4,1.2-0.2,1.3-0.3,2.6c-0.1,1.3,0,1.3-0.1,2.6c-0.1,1.3-0.1,1.3-0.2,2.6c-0.1,1.3-0.1,1.3-0.3,2.6c-0.1,0.3-0.2,0.5-0.4,0.3
			C57.1,76.1,57,76,57,75.8c-0.2-1.1-0.1-1.2-0.2-2.4c-0.1-1.3-0.1-1.3-0.1-2.6c-0.1-1.3-0.1-1.3-0.2-2.6c-0.1-1.3,0.4-1.4-0.2-2.6
			c-0.3-0.7-1.1-0.3-1.2,0.5c0,0.2-0.1,1.2-0.1,2.5c-0.1,0.8-0.2,1.6-0.2,2.5c-0.1,0.9,0,1.7-0.1,2.5c-0.1,1.4-0.2,1.2-0.2,2.5
			c0,0.2,0.1,0.3-0.3,0.3c-0.4,0-0.3-0.4-0.3-0.9c-0.1-1.4-0.2-1.4-0.3-2.7c-0.1-1.4-0.1-1.4-0.2-2.7c-0.1-1.4-0.1-1.4-0.2-2.7
			c-0.1-1.4,0-1.4-0.1-2.7c0-0.7,0-1.1,0.8-1.1c0.8,0,1.8,0,3.6,0c0.3,0,0.3,0,0.3-0.3s-0.2-1.2,0.1-2.3c0.1-0.5,0.5-0.6,0.9-0.6
			c0.2,0,0.4,0,0.6,0c0.4,0,0.8,0.1,0.9,0.6c0.3,1.1,0.1,2,0.1,2.3s0,0.3,0.3,0.3c1.8,0,2.9,0,3.6,0C65.1,63.4,65.1,63.8,65.1,64.5z
			"/>
	</g>
</g>
<path class="st5" d="M34.7,57.1c0-0.1,0-0.1,0-0.2c0.1-0.6-0.3-1.2-0.9-1.4L28.7,54c-0.7-0.2-1.4,0.2-1.6,0.9l-3,10.2
	c-0.2,0.6,0.1,1.3,0.7,1.5c3,1.2,5.2,3.8,5.9,7.1c0.1,0.4,0.4,0.8,0.8,1c0.4,0.1,0.9,0.1,1.2-0.2c1-0.9,2.3-1.4,3.7-1.4
	c0.9,0,1.7,0.2,2.4,0.6c0.6,0.3,1.3,0.1,1.7-0.5c0.4-0.6,0.7-1.3,0.9-2.1c1.5-5.2,3.2-10.9,3.2-10.9c0.2-0.7-0.2-1.4-0.9-1.6
	L38.6,57L37,57.8c0,0,0,0.1-0.1,0.2c-0.2,0.7-0.9,1-1.5,0.8v0c-0.7-0.2-1-0.9-0.8-1.5L34.7,57.1z"/>
<path class="st6" d="M38.4,55.1l8.8-29.7c0.2-0.7-0.7-1.5-1.3-1.7c-0.7-0.2-1.9,0-2.1,0.7L35,54.1c-0.2,0.7,0.7,1.5,1.3,1.7
	C37,56,38.2,55.7,38.4,55.1z"/>
<g>
	<g>
		<path class="st7" d="M43.7,25.7c0.1,0.4,0.9,0.8,1.3,0.9c0.4,0.1,1.3,0.2,1.6,0l6.7-4.9c0.4-0.3,0.1-0.9,0-1.4
			c-0.1-0.5-0.3-1.3-0.7-1.5L42.8,16c-0.5-0.1-1.1,0.5-1.4,0.8c-0.3,0.4-0.9,0.7-0.7,1.2L43.7,25.7z M45.9,23.4l-1.5-3.8l4.8,1.4
			L45.9,23.4z"/>
	</g>
</g>
<path class="st7" d="M40.3,55.6c0.2-0.7-0.2-1.4-0.9-1.6l-4.8-1.4c-0.7-0.2-1.4,0.2-1.6,0.9c0,0-0.5,1.6-0.9,3.1
	c-0.6,2,0.5,4.1,2.5,4.7c2,0.6,4.1-0.6,4.7-2.5C39.8,57.3,40.3,55.6,40.3,55.6z"/>
<g>
	<g>
		<path class="st6" d="M2,82.2h80v-1.5h0l0,0c0-3.8-3.1-6.9-7-6.9c-1.8,0-3.5,0.7-4.7,1.8c-0.8-0.4-1.6-0.6-2.5-0.6
			c-0.6,0-1.1,0.1-1.6,0.2c-1.1-3.7-4.5-6.3-8.5-6.3c-4.1,0-7.6,2.8-8.6,6.7c-0.8-0.4-1.6-0.6-2.6-0.6c-0.9,0-1.8,0.2-2.6,0.6
			c-1.2-3-4.1-5.2-7.6-5.2c-1.4,0-2.6,0.3-3.8,0.9c-1.7-4.7-6.2-8-11.4-8c-6.1,0-11.2,4.5-12,10.4c-0.1,0-0.2,0-0.2,0
			c-3.8,0-6.9,3.1-7,6.9V82.2z"/>
	</g>
</g>
<path class="st8" d="M33.8,56.8c0-0.1,0-0.1,0-0.2c0.1-0.6-0.3-1.2-0.9-1.4l-5-1.5c-0.7-0.2-1.3,0.2-1.5,0.8l-2.9,9.9
	c-0.2,0.6,0.1,1.3,0.7,1.5c2.9,1.2,5.1,3.7,5.7,6.9c0.1,0.4,0.4,0.8,0.8,0.9c0.4,0.1,0.9,0.1,1.2-0.2c1-0.8,2.2-1.3,3.6-1.3
	c0.8,0,1.6,0.2,2.4,0.5c0.6,0.3,1.3,0.1,1.6-0.5c0.4-0.6,0.6-1.3,0.9-2c1.5-5,3.1-10.6,3.1-10.6c0.2-0.7-0.2-1.3-0.8-1.5l-5-1.5
	l-1.5,0.8c0,0,0,0.1-0.1,0.2c-0.2,0.6-0.9,1-1.5,0.8c-0.6-0.2-1-0.9-0.8-1.5L33.8,56.8z"/>
<path class="st9" d="M37.5,54.8L46,26c0.2-0.7-0.7-1.5-1.3-1.7c-0.7-0.2-1.8,0-2,0.7l-8.6,28.8c-0.2,0.7,0.7,1.5,1.3,1.7
	C36.1,55.7,37.3,55.4,37.5,54.8z"/>
<g>
	<g>
		<path class="st10" d="M42.6,26.3c0.1,0.4,0.9,0.8,1.3,0.9c0.4,0.1,1.2,0.2,1.5,0l6.6-4.7c0.4-0.3,0.1-0.9,0-1.3s-0.3-1.3-0.7-1.4
			l-9.5-2.8c-0.5-0.1-1.1,0.5-1.4,0.8c-0.3,0.3-0.9,0.7-0.7,1.1L42.6,26.3z M44.8,24l-1.4-3.7l4.7,1.4L44.8,24z"/>
	</g>
</g>
<path class="st10" d="M39.3,55.3c0.2-0.7-0.2-1.3-0.8-1.5l-4.7-1.4c-0.7-0.2-1.3,0.2-1.5,0.8c0,0-0.5,1.6-0.9,3
	c-0.6,1.9,0.5,4,2.5,4.5c1.9,0.6,4-0.5,4.6-2.5C38.9,56.9,39.3,55.3,39.3,55.3z"/>
<g>
	<g>
		<path class="st9" d="M2,81.2h78v-1.5h0l0,0c0-3.7-3.1-6.7-6.8-6.7c-1.8,0-3.4,0.7-4.6,1.8c-0.7-0.4-1.6-0.6-2.4-0.6
			c-0.6,0-1.1,0.1-1.6,0.2c-1.1-3.5-4.4-6.1-8.3-6.1c-4,0-7.4,2.8-8.4,6.5c-0.8-0.4-1.6-0.6-2.5-0.6c-0.9,0-1.8,0.2-2.5,0.6
			c-1.2-2.9-4-5-7.4-5c-1.3,0-2.6,0.3-3.7,0.9c-1.7-4.5-6-7.8-11.1-7.8c-6,0-10.9,4.4-11.7,10.1c-0.1,0-0.2,0-0.2,0
			c-3.7,0-6.8,3-6.8,6.7V81.2z"/>
	</g>
</g>
</svg>
