<?xml version="1.0" encoding="utf-8"?>
<!-- Generator: Adobe Illustrator 27.3.1, SVG Export Plug-In . SVG Version: 6.00 Build 0)  -->
<svg version="1.1" id="Layer_1" xmlns="http://www.w3.org/2000/svg" xmlns:xlink="http://www.w3.org/1999/xlink" x="0px" y="0px"
	 viewBox="0 0 64 64" style="enable-background:new 0 0 64 64;" xml:space="preserve">
<style type="text/css">
	.st0{fill:#FFFFFF;}
</style>
<g>
	<g>
		<path class="st0" d="M19.5,5c-1.4,0-2.5,1.1-2.5,2.5v39.4c0,1.4,1.1,2.5,2.5,2.5h33.6c1.4,0,2.5-1.1,2.5-2.5V21.5H39.2
			c-1.4,0-2.5-1.1-2.5-2.5V5H19.5z"/>
	</g>
</g>
<g>
	<g>
		<path class="st0" d="M10.8,13.3c-1.4,0-2.5,1.1-2.5,2.5v39.4c0,1.4,1.1,2.5,2.5,2.5h33.6c1.4,0,2.5-1.1,2.5-2.5v-2.9H17
			c-1.4,0-2.5-1.1-2.5-2.5V13.3H10.8z"/>
	</g>
</g>
<g>
	<g>
		<path class="st0" d="M38.4,5v12.3c0,1.4,1.1,2.5,2.5,2.5h14.8L38.4,5z"/>
	</g>
</g>
</svg>
