<?xml version="1.0" encoding="utf-8"?>
<!-- Generator: Adobe Illustrator 27.3.1, SVG Export Plug-In . SVG Version: 6.00 Build 0)  -->
<svg version="1.1" id="Layer_1" xmlns="http://www.w3.org/2000/svg" xmlns:xlink="http://www.w3.org/1999/xlink" x="0px" y="0px"
	 viewBox="0 0 64 64" style="enable-background:new 0 0 64 64;" xml:space="preserve">
<style type="text/css">
	.st0{fill:#FFFFFF;}
</style>
<g>
	<g>
		<path class="st0" d="M15.4,19.6c0-0.4,0.3-0.8,0.8-0.8h16.6c0.4,0,0.8,0.3,0.8,0.8s-0.3,0.8-0.8,0.8H16.1
			C15.7,20.4,15.4,20,15.4,19.6z M51.3,26.6v28.9c0,0.4-0.3,0.8-0.8,0.8H25.1c-0.4,0-0.8-0.3-0.8-0.8V45.5h-12
			c-1.3,0-2.3-1.1-2.3-2.3V14c0-1.3,1.1-2.3,2.3-2.3h5.3v-1.3c0-0.4,0.3-0.8,0.8-0.8h2.9c0.5-1.2,1.8-2.1,3.2-2.1s2.6,0.8,3.2,2.1
			h2.9c0.4,0,0.8,0.3,0.8,0.8v1.3h5.3c1.3,0,2.3,1,2.3,2.3v7.7h7.5c0.2,0,0.4,0.1,0.5,0.2l4.1,4.1C51.3,26.2,51.3,26.4,51.3,26.6z
			 M47.2,25.8h1.5l-1.5-1.5V25.8z M19.1,13.8h10.7v-2.6h-2.7c-0.4,0-0.7-0.2-0.7-0.6c-0.2-0.9-1-1.5-1.9-1.5c-0.9,0-1.7,0.6-1.9,1.5
			c-0.1,0.3-0.4,0.6-0.7,0.6h-2.7V13.8z M24.3,44v-4h-8.2c-0.4,0-0.8-0.3-0.8-0.8c0-0.4,0.3-0.8,0.8-0.8h8.2V35h-8.2
			c-0.4,0-0.8-0.3-0.8-0.8s0.3-0.8,0.8-0.8h8.2v-3.4h-8.2c-0.4,0-0.8-0.3-0.8-0.8c0-0.4,0.3-0.8,0.8-0.8h8.2v-3.4h-8.2
			c-0.4,0-0.8-0.3-0.8-0.8s0.3-0.8,0.8-0.8h8.2v-1.3c0-0.4,0.3-0.8,0.8-0.8h12.4V14c0-0.5-0.4-0.8-0.8-0.8h-5.3v1.3
			c0,0.4-0.3,0.8-0.8,0.8H18.3c-0.4,0-0.8-0.3-0.8-0.8v-1.3h-5.3c-0.5,0-0.8,0.4-0.8,0.8v29.1c0,0.4,0.4,0.8,0.8,0.8H24.3z
			 M49.8,54.8V27.4h-3.4c-0.4,0-0.8-0.3-0.8-0.8v-3.4H25.8v31.5H49.8z M45.4,31.9H30.3c-0.4,0-0.8,0.3-0.8,0.8
			c0,0.4,0.3,0.8,0.8,0.8h15.1c0.4,0,0.8-0.3,0.8-0.8C46.1,32.3,45.8,31.9,45.4,31.9z M45.4,36.4H30.3c-0.4,0-0.8,0.3-0.8,0.8
			s0.3,0.8,0.8,0.8h15.1c0.4,0,0.8-0.3,0.8-0.8S45.8,36.4,45.4,36.4z M45.4,40.8H30.3c-0.4,0-0.8,0.3-0.8,0.8c0,0.4,0.3,0.8,0.8,0.8
			h15.1c0.4,0,0.8-0.3,0.8-0.8C46.1,41.2,45.8,40.8,45.4,40.8z M45.4,45.3H30.3c-0.4,0-0.8,0.3-0.8,0.8c0,0.4,0.3,0.8,0.8,0.8h15.1
			c0.4,0,0.8-0.3,0.8-0.8C46.1,45.6,45.8,45.3,45.4,45.3z M45.4,49.7H30.3c-0.4,0-0.8,0.3-0.8,0.8s0.3,0.8,0.8,0.8h15.1
			c0.4,0,0.8-0.3,0.8-0.8S45.8,49.7,45.4,49.7z M30.3,29h10.8c0.4,0,0.8-0.3,0.8-0.8c0-0.4-0.3-0.8-0.8-0.8H30.3
			c-0.4,0-0.8,0.3-0.8,0.8C29.5,28.7,29.8,29,30.3,29z"/>
	</g>
</g>
</svg>
